<svg width="32" height="32" viewBox="0 0 32 32" fill="none" xmlns="http://www.w3.org/2000/svg">
<path d="M13.744 18.2561L20.2053 11.7947M26.8133 7.85338L21.36 25.5787C20.8707 27.1681 20.6267 27.9627 20.204 28.2254C20.024 28.3379 19.8198 28.4059 19.6083 28.4235C19.3968 28.4411 19.1841 28.4079 18.988 28.3267C18.5293 28.1361 18.156 27.3934 17.412 25.9054L13.9587 18.9961C13.8873 18.8364 13.8011 18.6837 13.7013 18.5401C13.6319 18.4497 13.5513 18.3686 13.4613 18.2987C13.3223 18.2025 13.1745 18.1195 13.02 18.0507L6.09599 14.5867C4.60932 13.8427 3.86532 13.4707 3.67466 13.0121C3.59333 12.8157 3.56009 12.6028 3.57772 12.3911C3.59534 12.1793 3.66332 11.9749 3.77599 11.7947C4.03866 11.3734 4.83332 11.1281 6.42266 10.6387L24.1493 5.18538C25.3987 4.80005 26.0227 4.60805 26.4453 4.76405C26.6269 4.83072 26.7918 4.93609 26.9285 5.07286C27.0653 5.20962 27.1707 5.37449 27.2373 5.55605C27.392 5.97738 27.2 6.60139 26.816 7.84939L26.8133 7.85338Z" stroke="black" stroke-width="2" stroke-linecap="round" stroke-linejoin="round"/>
</svg>
